<svg width="24" height="24" viewBox="0 0 24 24" fill="none" xmlns="http://www.w3.org/2000/svg">
<path fill-rule="evenodd" clip-rule="evenodd" d="M21.2635 2.29288C20.873 1.90235 20.2398 1.90235 19.8493 2.29288L18.9769 3.16523C17.8618 2.63253 16.4857 2.82799 15.5621 3.75163L4.95549 14.3582L10.6123 20.0151L21.2189 9.40848C22.1426 8.48485 22.338 7.10879 21.8053 5.99366L22.6777 5.1213C23.0682 4.73078 23.0682 4.09762 22.6777 3.70709L21.2635 2.29288ZM16.9955 10.8035L10.6123 17.1867L7.78392 14.3582L14.1671 7.97508L16.9955 10.8035ZM18.8138 8.98524L19.8047 7.99427C20.1953 7.60375 20.1953 6.97058 19.8047 6.58006L18.3905 5.16584C18 4.77532 17.3668 4.77532 16.9763 5.16584L15.9853 6.15681L18.8138 8.98524Z" fill="#616161"/>
<path d="M2 22.9502L4.12171 15.1716L9.77817 20.8289L2 22.9502Z" fill="#616161"/>
</svg>
