<svg width="779" height="728" viewBox="0 0 779 728" fill="none" xmlns="http://www.w3.org/2000/svg">
<g filter="url(#filter0_i_5_1212)">
<rect y="418.166" width="77.4585" height="185.04" rx="38.7293" fill="#7E57C2"/>
</g>
<rect x="8.60651" y="426.773" width="60.2455" height="167.827" rx="30.1228" stroke="#602CBC" stroke-width="17.213"/>
<rect x="710.037" y="426.773" width="60.2455" height="167.827" rx="30.1228" fill="#7E57C2" stroke="#602CBC" stroke-width="17.213"/>
<line x1="391.596" y1="125.545" x2="391.596" y2="276.159" stroke="#602CBC" stroke-width="17.213"/>
<g filter="url(#filter1_i_5_1212)">
<rect x="296.924" y="203.003" width="189.343" height="111.885" rx="55.9423" fill="#7E57C2"/>
</g>
<rect x="305.531" y="211.61" width="172.13" height="94.6716" rx="47.3358" stroke="#602CBC" stroke-width="17.213"/>
<g filter="url(#filter2_i_5_1212)">
<circle cx="391.596" cy="69.6025" r="68.852" fill="#7E57C2"/>
</g>
<circle cx="391.596" cy="69.6025" r="60.2455" stroke="#602CBC" stroke-width="17.213"/>
<g filter="url(#filter3_i_5_1212)">
<path d="M38.7295 499.928C38.7295 369.214 144.694 263.249 275.408 263.249H503.481C634.195 263.249 740.16 369.214 740.16 499.928V611.812C740.16 675.981 688.141 728 623.972 728H154.917C90.7486 728 38.7295 675.981 38.7295 611.812V499.928Z" fill="#7E57C2"/>
</g>
<path d="M47.336 499.928C47.336 373.967 149.448 271.855 275.408 271.855H503.481C629.442 271.855 731.553 373.967 731.553 499.928V611.812C731.553 671.228 683.387 719.394 623.972 719.394H154.917C95.5019 719.394 47.336 671.228 47.336 611.812V499.928Z" stroke="#602CBC" stroke-width="17.213"/>
<circle cx="240.982" cy="426.772" r="86.0651" fill="white" stroke="#602CBC" stroke-width="17.213"/>
<circle cx="240.982" cy="426.773" r="47.3358" fill="#5122A5"/>
<circle cx="223.769" cy="418.166" r="17.213" fill="white"/>
<circle cx="533.603" cy="426.772" r="86.0651" fill="white" stroke="#602CBC" stroke-width="17.213"/>
<circle cx="533.603" cy="426.773" r="47.3358" fill="#5122A5"/>
<circle cx="516.391" cy="418.166" r="17.213" fill="white"/>
<path d="M305.531 577.386C339.957 644.087 436.78 644.087 473.358 577.386" stroke="#602CBC" stroke-width="17.213" stroke-linecap="round"/>
<defs>
<filter id="filter0_i_5_1212" x="0" y="418.166" width="77.4585" height="185.04" filterUnits="userSpaceOnUse" color-interpolation-filters="sRGB">
<feFlood flood-opacity="0" result="BackgroundImageFix"/>
<feBlend mode="normal" in="SourceGraphic" in2="BackgroundImageFix" result="shape"/>
<feColorMatrix in="SourceAlpha" type="matrix" values="0 0 0 0 0 0 0 0 0 0 0 0 0 0 0 0 0 0 127 0" result="hardAlpha"/>
<feOffset dx="34.426" dy="12.9098"/>
<feComposite in2="hardAlpha" operator="arithmetic" k2="-1" k3="1"/>
<feColorMatrix type="matrix" values="0 0 0 0 1 0 0 0 0 1 0 0 0 0 1 0 0 0 0.25 0"/>
<feBlend mode="normal" in2="shape" result="effect1_innerShadow_5_1212"/>
</filter>
<filter id="filter1_i_5_1212" x="296.924" y="203.003" width="189.343" height="111.885" filterUnits="userSpaceOnUse" color-interpolation-filters="sRGB">
<feFlood flood-opacity="0" result="BackgroundImageFix"/>
<feBlend mode="normal" in="SourceGraphic" in2="BackgroundImageFix" result="shape"/>
<feColorMatrix in="SourceAlpha" type="matrix" values="0 0 0 0 0 0 0 0 0 0 0 0 0 0 0 0 0 0 127 0" result="hardAlpha"/>
<feOffset dx="34.426" dy="12.9098"/>
<feComposite in2="hardAlpha" operator="arithmetic" k2="-1" k3="1"/>
<feColorMatrix type="matrix" values="0 0 0 0 1 0 0 0 0 1 0 0 0 0 1 0 0 0 0.25 0"/>
<feBlend mode="normal" in2="shape" result="effect1_innerShadow_5_1212"/>
</filter>
<filter id="filter2_i_5_1212" x="322.744" y="0.750488" width="137.704" height="137.704" filterUnits="userSpaceOnUse" color-interpolation-filters="sRGB">
<feFlood flood-opacity="0" result="BackgroundImageFix"/>
<feBlend mode="normal" in="SourceGraphic" in2="BackgroundImageFix" result="shape"/>
<feColorMatrix in="SourceAlpha" type="matrix" values="0 0 0 0 0 0 0 0 0 0 0 0 0 0 0 0 0 0 127 0" result="hardAlpha"/>
<feOffset dx="34.426" dy="12.9098"/>
<feComposite in2="hardAlpha" operator="arithmetic" k2="-1" k3="1"/>
<feColorMatrix type="matrix" values="0 0 0 0 1 0 0 0 0 1 0 0 0 0 1 0 0 0 0.25 0"/>
<feBlend mode="normal" in2="shape" result="effect1_innerShadow_5_1212"/>
</filter>
<filter id="filter3_i_5_1212" x="38.7295" y="263.249" width="701.43" height="464.751" filterUnits="userSpaceOnUse" color-interpolation-filters="sRGB">
<feFlood flood-opacity="0" result="BackgroundImageFix"/>
<feBlend mode="normal" in="SourceGraphic" in2="BackgroundImageFix" result="shape"/>
<feColorMatrix in="SourceAlpha" type="matrix" values="0 0 0 0 0 0 0 0 0 0 0 0 0 0 0 0 0 0 127 0" result="hardAlpha"/>
<feOffset dx="34.426" dy="12.9098"/>
<feComposite in2="hardAlpha" operator="arithmetic" k2="-1" k3="1"/>
<feColorMatrix type="matrix" values="0 0 0 0 1 0 0 0 0 1 0 0 0 0 1 0 0 0 0.25 0"/>
<feBlend mode="normal" in2="shape" result="effect1_innerShadow_5_1212"/>
</filter>
</defs>
</svg>
