<svg width="24" height="24" viewBox="0 0 24 24" fill="none" xmlns="http://www.w3.org/2000/svg">
<path fill-rule="evenodd" clip-rule="evenodd" d="M9 11C11.2091 11 13 9.20914 13 7C13 4.79086 11.2091 3 9 3C6.79086 3 5 4.79086 5 7C5 9.20914 6.79086 11 9 11ZM9 9C10.1046 9 11 8.10457 11 7C11 5.89543 10.1046 5 9 5C7.89543 5 7 5.89543 7 7C7 8.10457 7.89543 9 9 9Z" fill="#616161"/>
<path d="M13 14C13.5523 14 14 14.4477 14 15V21H16V15C16 13.3431 14.6569 12 13 12H5C3.34315 12 2 13.3431 2 15V21H4V15C4 14.4477 4.44772 14 5 14H13Z" fill="#616161"/>
<path d="M23 11H17V13H23V11Z" fill="#616161"/>
<path d="M18 15H23V17H18V15Z" fill="#616161"/>
<path d="M23 7H16V9H23V7Z" fill="#616161"/>
</svg>
