<svg width="22" height="18" viewBox="0 0 22 18" fill="none" xmlns="http://www.w3.org/2000/svg">
<path fill-rule="evenodd" clip-rule="evenodd" d="M13 4C12.4477 4 12 4.44772 12 5V13C12 13.5523 12.4477 14 13 14H17C17.5523 14 18 13.5523 18 13V5C18 4.44772 17.5523 4 17 4H13ZM16 6H14V12H16V6Z" fill="#616161"/>
<path d="M5 4C4.44772 4 4 4.44772 4 5C4 5.55228 4.44772 6 5 6H9C9.55228 6 10 5.55228 10 5C10 4.44772 9.55228 4 9 4H5Z" fill="#616161"/>
<path d="M5 8C4.44772 8 4 8.44772 4 9C4 9.55228 4.44772 10 5 10H9C9.55228 10 10 9.55228 10 9C10 8.44772 9.55228 8 9 8H5Z" fill="#616161"/>
<path d="M4 13C4 12.4477 4.44772 12 5 12H9C9.55228 12 10 12.4477 10 13C10 13.5523 9.55228 14 9 14H5C4.44772 14 4 13.5523 4 13Z" fill="#616161"/>
<path fill-rule="evenodd" clip-rule="evenodd" d="M3 0C1.34315 0 0 1.34315 0 3V15C0 16.6569 1.34315 18 3 18H19C20.6569 18 22 16.6569 22 15V3C22 1.34315 20.6569 0 19 0H3ZM19 2H3C2.44772 2 2 2.44772 2 3V15C2 15.5523 2.44772 16 3 16H19C19.5523 16 20 15.5523 20 15V3C20 2.44772 19.5523 2 19 2Z" fill="#616161"/>
</svg>
