
<svg id="Layer_1" data-name="Layer 1" xmlns="http://www.w3.org/2000/svg" viewBox="0 0 512 512"><defs><style>.cls-1{fill:#141f38;}</style></defs><title>speech-bubble-6-glyph</title><path class="cls-1" d="M369.78,227.91a14.22,14.22,0,1,1-14.22-14.22A14.24,14.24,0,0,1,369.78,227.91ZM156.44,213.68a14.22,14.22,0,1,0,14.22,14.22A14.24,14.24,0,0,0,156.44,213.68Zm99.56,0a14.22,14.22,0,1,0,14.22,14.22A14.24,14.24,0,0,0,256,213.68ZM512,99.91v256a42.72,42.72,0,0,1-42.67,42.67H45.11l-8.33,8.33L0,443.68V99.91A42.72,42.72,0,0,1,42.67,57.24H469.33A42.72,42.72,0,0,1,512,99.91Zm-312.89,128a42.67,42.67,0,1,0-42.67,42.67A42.67,42.67,0,0,0,199.11,227.91Zm99.56,0A42.67,42.67,0,1,0,256,270.57,42.67,42.67,0,0,0,298.67,227.91Zm99.56,0a42.67,42.67,0,1,0-42.67,42.67A42.67,42.67,0,0,0,398.22,227.91Z"/></svg>
